<?xml version="1.0" encoding="UTF-8" standalone="no"?>
<!-- Created with Inkscape (http://www.inkscape.org/) -->

<svg
   xmlns:dc="http://purl.org/dc/elements/1.1/"
   xmlns:cc="http://creativecommons.org/ns#"
   xmlns:rdf="http://www.w3.org/1999/02/22-rdf-syntax-ns#"
   xmlns:svg="http://www.w3.org/2000/svg"
   xmlns="http://www.w3.org/2000/svg"
   xmlns:sodipodi="http://sodipodi.sourceforge.net/DTD/sodipodi-0.dtd"
   xmlns:inkscape="http://www.inkscape.org/namespaces/inkscape"
   width="400mm"
   height="200mm"
   viewBox="0 0 400 200"
   version="1.1"
   id="svg8"
   inkscape:version="0.92.4 (5da689c313, 2019-01-14)"
   sodipodi:docname="OgelGames-Logo-Transparent.svg"
   inkscape:export-filename="C:\Users\Olliver\Documents\Logos\OgelGames-Logo-Transparent.png"
   inkscape:export-xdpi="65.98201"
   inkscape:export-ydpi="65.98201">
  <defs
     id="defs2">
    <marker
       inkscape:isstock="true"
       style="overflow:visible"
       id="Torso"
       refX="0"
       refY="0"
       orient="auto"
       inkscape:stockid="Torso">
      <g
         style="fill:#000000;fill-opacity:1;stroke:#000000;stroke-opacity:1"
         transform="scale(0.7)"
         id="g2302">
        <path
           inkscape:connector-curvature="0"
           style="fill:#000000;fill-opacity:1;fill-rule:evenodd;stroke:#000000;stroke-width:1.25;stroke-opacity:1"
           d="m -4.7792281,-3.239542 c 2.350374,0.3659393 5.30026732,1.9375477 5.03715532,3.62748546 C -0.00518779,2.0778819 -2.2126741,2.6176539 -4.5630471,2.2517169 -6.9134221,1.8857769 -8.521035,0.75201414 -8.257922,-0.93792336 -7.994809,-2.6278615 -7.1296041,-3.6054813 -4.7792281,-3.239542 Z"
           id="path2286" />
        <path
           inkscape:connector-curvature="0"
           style="fill:#000000;fill-opacity:1;fill-rule:evenodd;stroke:#000000;stroke-width:1.00000003pt;stroke-opacity:1"
           d="M 4.4598789,0.08866574 C -2.5564571,-4.378332 5.2248769,-3.9061806 -0.84829578,-8.7197331"
           id="path2288" />
        <path
           inkscape:connector-curvature="0"
           style="fill:#000000;fill-opacity:1;fill-rule:evenodd;stroke:#000000;stroke-width:1.00000003pt;stroke-opacity:1"
           d="M 4.9298719,0.05752074 C -1.3872731,1.7494689 1.8027579,5.4782079 -4.9448731,7.5462725"
           id="path2290" />
        <rect
           style="fill:#000000;fill-opacity:1;fill-rule:evenodd;stroke:#000000;stroke-width:1.00000003pt;stroke-opacity:1"
           width="2.6366582"
           height="2.7608147"
           x="-10.391706"
           y="-1.7408575"
           transform="matrix(0.527536,-0.849533,0.887668,0.460484,0,0)"
           id="rect2292" />
        <rect
           style="fill:#000000;fill-opacity:1;fill-rule:evenodd;stroke:#000000;stroke-width:1.00000003pt;stroke-opacity:1"
           width="2.7327356"
           height="2.8614161"
           x="4.9587269"
           y="-7.9629307"
           transform="matrix(0.671205,-0.741272,0.790802,0.612072,0,0)"
           id="rect2294" />
        <path
           inkscape:connector-curvature="0"
           style="fill:#000000;fill-opacity:1;fill-rule:evenodd;stroke:#000000;stroke-width:1.00000003pt;stroke-opacity:1"
           d="m 16.779951,-28.685045 a 0.60731727,0.60731727 0 1 0 -1.214634,0 0.60731727,0.60731727 0 1 0 1.214634,0 z"
           transform="matrix(0,-1.109517,1.109517,0,25.96648,19.71619)"
           id="path2296" />
        <path
           inkscape:connector-curvature="0"
           style="fill:#000000;fill-opacity:1;fill-rule:evenodd;stroke:#000000;stroke-width:1.00000003pt;stroke-opacity:1"
           d="m 16.779951,-28.685045 a 0.60731727,0.60731727 0 1 0 -1.214634,0 0.60731727,0.60731727 0 1 0 1.214634,0 z"
           transform="matrix(0,-1.109517,1.109517,0,26.8245,16.99126)"
           id="path2298" />
      </g>
    </marker>
    <marker
       inkscape:isstock="true"
       style="overflow:visible"
       id="DiamondL"
       refX="0"
       refY="0"
       orient="auto"
       inkscape:stockid="DiamondL">
      <path
         inkscape:connector-curvature="0"
         transform="scale(0.8)"
         style="fill:#000000;fill-opacity:1;fill-rule:evenodd;stroke:#000000;stroke-width:1.00000003pt;stroke-opacity:1"
         d="M 0,-7.0710768 -7.0710894,0 0,7.0710589 7.0710462,0 Z"
         id="path2153" />
    </marker>
    <marker
       inkscape:isstock="true"
       style="overflow:visible"
       id="Arrow1Lstart"
       refX="0"
       refY="0"
       orient="auto"
       inkscape:stockid="Arrow1Lstart">
      <path
         inkscape:connector-curvature="0"
         transform="matrix(0.8,0,0,0.8,10,0)"
         style="fill:#000000;fill-opacity:1;fill-rule:evenodd;stroke:#000000;stroke-width:1.00000003pt;stroke-opacity:1"
         d="M 0,0 5,-5 -12.5,0 5,5 Z"
         id="path2074" />
    </marker>
    <inkscape:path-effect
       only_selected="false"
       apply_with_weight="true"
       apply_no_weight="true"
       helper_size="0"
       steps="2"
       weight="33.333333"
       is_visible="true"
       id="path-effect2031"
       effect="bspline" />
  </defs>
  <sodipodi:namedview
     id="base"
     pagecolor="#333333"
     bordercolor="#666666"
     borderopacity="1.0"
     inkscape:pageopacity="0"
     inkscape:pageshadow="2"
     inkscape:zoom="0.49497475"
     inkscape:cx="365.39124"
     inkscape:cy="365.6891"
     inkscape:document-units="mm"
     inkscape:current-layer="layer1"
     showgrid="false"
     inkscape:window-width="1920"
     inkscape:window-height="1017"
     inkscape:window-x="1272"
     inkscape:window-y="-8"
     inkscape:window-maximized="1"
     inkscape:showpageshadow="false" />
  <metadata
     id="metadata5">
    <rdf:RDF>
      <cc:Work
         rdf:about="">
        <dc:format>image/svg+xml</dc:format>
        <dc:type
           rdf:resource="http://purl.org/dc/dcmitype/StillImage" />
        <dc:title></dc:title>
      </cc:Work>
    </rdf:RDF>
  </metadata>
  <g
     inkscape:label="Layer 1"
     inkscape:groupmode="layer"
     id="layer1"
     transform="translate(0,-97)">
    <text
       xml:space="preserve"
       style="font-style:italic;font-variant:normal;font-weight:normal;font-stretch:normal;font-size:131.59561157px;line-height:0.89999998;font-family:Legothick;-inkscape-font-specification:'Legothick Italic';text-align:start;letter-spacing:0px;word-spacing:0px;text-anchor:start;fill:#ffffff;fill-opacity:1;stroke:none;stroke-width:0.4275955;"
       x="-1.4837712"
       y="207.07883"
       id="text12"
       transform="scale(1.1012614,0.90804963)"><tspan
         sodipodi:role="line"
         x="-1.4837712"
         y="207.07883"
         style="font-style:italic;font-variant:normal;font-weight:normal;font-stretch:normal;font-size:131.59561157px;line-height:0.89999998;font-family:Legothick;-inkscape-font-specification:'Legothick Italic';text-align:start;text-anchor:start;stroke-width:0.4275955;fill:#ffffff;"
         id="tspan14">OGEL</tspan><tspan
         sodipodi:role="line"
         x="-1.4837712"
         y="325.51486"
         style="font-style:italic;font-variant:normal;font-weight:normal;font-stretch:normal;font-size:131.59561157px;line-height:0.89999998;font-family:Legothick;-inkscape-font-specification:'Legothick Italic';text-align:start;text-anchor:start;stroke-width:0.4275955;fill:#ffffff;"
         id="tspan18">GAMES</tspan></text>
    <flowRoot
       xml:space="preserve"
       id="flowRoot20"
       style="fill:black;fill-opacity:1;stroke:none;font-family:Legothick;font-style:normal;font-weight:normal;font-size:40px;line-height:1.25;letter-spacing:0px;word-spacing:0px;-inkscape-font-specification:Legothick;font-stretch:normal;font-variant:normal"><flowRegion
         id="flowRegion22"><rect
           id="rect24"
           width="60"
           height="91.428574"
           x="925.71429"
           y="173.04837" /></flowRegion><flowPara
         id="flowPara26" /></flowRoot>    <flowRoot
       xml:space="preserve"
       id="flowRoot28"
       style="fill:black;fill-opacity:1;stroke:none;font-family:Legothick;font-style:normal;font-weight:normal;font-size:40px;line-height:1.25;letter-spacing:0px;word-spacing:0px;-inkscape-font-specification:Legothick;font-stretch:normal;font-variant:normal"><flowRegion
         id="flowRegion30"><rect
           id="rect32"
           width="60"
           height="77.14286"
           x="1194.2858"
           y="338.76266" /></flowRegion><flowPara
         id="flowPara34" /></flowRoot>    <flowRoot
       xml:space="preserve"
       id="flowRoot36"
       style="fill:black;fill-opacity:1;stroke:none;font-family:Legothick;font-style:normal;font-weight:normal;font-size:40px;line-height:1.25;letter-spacing:0px;word-spacing:0px;-inkscape-font-specification:Legothick;font-stretch:normal;font-variant:normal"><flowRegion
         id="flowRegion38"><rect
           id="rect40"
           width="62.857143"
           height="80"
           x="920"
           y="167.33409" /></flowRegion><flowPara
         id="flowPara42" /></flowRoot>    <g
       transform="matrix(0.75191968,0,0,0.75191968,295.78945,-23.197017)"
       id="layer1-1"
       inkscape:label="Layer 1">
      <g
         style="stroke-width:0.87968177"
         transform="matrix(1.14421,0,0,1.1293878,-87.268958,1.7380723)"
         id="g887">
        <path
           sodipodi:nodetypes="ccccccccccccccc"
           style="opacity:1;fill:none;fill-opacity:1;fill-rule:nonzero;stroke:#ffffff;stroke-width:7.6044445;stroke-linecap:round;stroke-linejoin:round;stroke-miterlimit:4;stroke-dasharray:none;stroke-opacity:1"
           d="m 170.74667,169.08848 c -0.0436,0.004 -0.0874,0.007 -0.13101,0.0109 v -0.004 h -35.02325 -35.02325 c -0.14771,-0.004 -0.29541,-0.008 -0.44385,-0.008 -11.226863,0.0271 -20.316097,14.53418 -20.304736,32.40806 0.01209,17.87388 9.119074,32.35124 20.345916,32.3418 8.26829,-0.007 15.3814,-7.86936 18.55642,-19.15243 h 33.51071 c 3.27351,11.64771 10.53917,19.14761 18.55423,19.15243 11.22684,-0.01 20.32494,-14.50138 20.32488,-32.37526 v -0.0656 c -0.0226,-17.87388 -9.1392,-32.33683 -20.36606,-32.30973 z"
           id="path1923"
           inkscape:connector-curvature="0" />
        <path
           style="opacity:1;fill:#ffffff;fill-opacity:1;fill-rule:nonzero;stroke:none;stroke-width:5.31594849;stroke-linecap:round;stroke-linejoin:round;stroke-miterlimit:4;stroke-dasharray:none"
           d="m 103.38774,181.31943 c -0.71288,0 -1.28723,0.57439 -1.28723,1.28724 v 6.5161 h -6.516713 c -0.712848,0 -1.285982,0.57435 -1.285982,1.2872 v 5.99208 c 0,0.71288 0.573134,1.28662 1.285982,1.28662 h 6.516713 v 6.51608 c 0,0.71288 0.57435,1.28723 1.28723,1.28723 h 5.99144 c 0.71288,0 1.28724,-0.57435 1.28724,-1.28723 v -6.51608 h 6.51671 c 0.71284,0 1.28598,-0.57374 1.28598,-1.28662 v -5.99208 c 0,-0.71285 -0.57314,-1.2872 -1.28598,-1.2872 h -6.51671 v -6.5161 c 0,-0.71285 -0.57436,-1.28724 -1.28724,-1.28724 z m 61.15492,0.006 v 6.1e-4 a 4.2829506,4.2830546 0 0 0 -4.27702,4.28704 4.2829506,4.2830546 0 0 0 4.28514,4.2789 4.2829506,4.2830546 0 0 0 4.28077,-4.28329 v -0.01 a 4.2829506,4.2830546 0 0 0 -4.28889,-4.27389 z m -7.80145,7.80394 a 4.2829506,4.2830546 0 0 0 -4.27827,4.28452 4.2829506,4.2830546 0 0 0 4.28265,4.28075 h 0.01 a 4.2829506,4.2830546 0 0 0 4.27389,-4.28825 4.2829506,4.2830546 0 0 0 -4.28763,-4.27702 z m 15.60599,0 a 4.2829506,4.2830546 0 0 0 -4.27826,4.28452 4.2829506,4.2830546 0 0 0 4.28325,4.28075 h 0.01 a 4.2829506,4.2830546 0 0 0 4.27393,-4.28825 h -6.4e-4 a 4.2829506,4.2830546 0 0 0 -4.287,-4.27702 z m -7.80454,7.80145 v 10e-4 a 4.2829506,4.2830546 0 0 0 -4.27702,4.287 4.2829506,4.2830546 0 0 0 4.28514,4.27891 4.2829506,4.2830546 0 0 0 4.28077,-4.28265 v -0.01 a 4.2829506,4.2830546 0 0 0 -4.28889,-4.27453 z"
           id="path1962"
           inkscape:connector-curvature="0" />
      </g>
      <path
         inkscape:connector-curvature="0"
         id="path886"
         d="m 26.053508,181.75619 a 63.194149,63.207264 0 0 1 41.583637,-15.69668 63.194149,63.207264 0 0 1 41.796885,15.71541"
         style="opacity:1;fill:none;fill-opacity:1;fill-rule:nonzero;stroke:#ffffff;stroke-width:8.64454079;stroke-linecap:round;stroke-linejoin:round;stroke-miterlimit:4;stroke-dasharray:none;paint-order:normal;stroke-opacity:1" />
      <path
         inkscape:connector-curvature="0"
         id="path882"
         d="M 109.41285,276.77708 A 63.194149,63.207264 0 0 1 67.765089,292.47396 63.194149,63.207264 0 0 1 26.03024,276.75679"
         style="opacity:1;fill:none;fill-opacity:1;fill-rule:nonzero;stroke:#ffffff;stroke-width:8.64454079;stroke-linecap:round;stroke-linejoin:round;stroke-miterlimit:4;stroke-dasharray:none;paint-order:normal;stroke-opacity:1" />
      <path
         style="opacity:1;fill:none;fill-opacity:1;fill-rule:nonzero;stroke:#ffffff;stroke-width:8.64454079;stroke-linecap:round;stroke-linejoin:round;stroke-miterlimit:4;stroke-dasharray:none;paint-order:normal;stroke-opacity:1"
         d="m 87.470031,268.7397 a 29.916171,29.304792 0 0 1 -19.71609,7.27755 29.916171,29.304792 0 0 1 -19.757318,-7.28695"
         id="path892"
         inkscape:connector-curvature="0" />
    </g>
  </g>
</svg>
